# xmcd
#
# Track frame offsets:
#	150
#	13802
#	25733
#	40038
#	52684
#	66359
#	78780
#	93071
#	107115
#	121057
#	134051
#	148485
#	160921
#	174237
#	188211
#	202045
#	217697
#	231332
#	244709
#	259373
#	272397
#	285105
#	299064
#	311664
#	324856
#
# Disc length: 4477 seconds
#
# Revision: 5
# Processed by: cddbd v1.5.2PL0 Copyright (c) Steve Scherf et al.
# Submitted via: EasyCDDAExtractor 11.1.0.1
#
DISCID=60117b19
DTITLE=Various Artist - A Richer Tradition - Disc 4
DYEAR=2007
DGENRE=Blues
TTITLE0=Tom Dickson - Labor Blues (1928)
TTITLE1=Lottie Kimbrough - Goin' Away Blues (1928)
TTITLE2=Charlie Kyle - No Baby (1928)
TTITLE3=William Harris - Early Mornin' Blues (1928)
TTITLE4=Willie Reed - Dreaming Blues (1928)
TTITLE5=George Carter - Weeping Willow Blues (1929)
TTITLE6=Hambone Willie Newbern - Way Down In Arkansas (1929)
TTITLE7=Lonnie Coleman - Wild About My Loving (1929)
TTITLE8=Freezone - Indian Squaw Blues (1929)
TTITLE9=Edward Thompson - Florida Bound (1929)
TTITLE10=Eli Framer - God Didn't Make Me No Monkey Man (1929)
TTITLE11=Mattie Delaney - Tallahatchie River Blues (1930)
TTITLE12=Jim Jam (Walter Taylor) - Diamond Ring Blues (1930)
TTITLE13=Jim Thompkins - Bedside Blues (1930)
TTITLE14=Willie Harris - Lonesome Midnight Dream (1930)
TTITLE15=John Byrd - Billy Goat Blues (1930)
TTITLE16=Arthur Pettis - That Won't Do (1930)
TTITLE17=George Carter - Ghost Woman Blues (1929)
TTITLE18=Gene Campbell - "Toby" Woman Blues (1931)
TTITLE19=Jack Gowdlock - Rollin' Dough Blues (1931)
TTITLE20=Bob Campbell - Starvation Farm Blues (1934)
TTITLE21=Carl Martin - Farewell To You Baby (1935)
TTITLE22=Louie Lasky - Teasin' Brown Blues (1935)
TTITLE23=George Torey - Married Woman Blues (1937)
TTITLE24=Virgil Childers - Dago Blues (1938)
EXTD=
EXTT0=
EXTT1=
EXTT2=
EXTT3=
EXTT4=
EXTT5=
EXTT6=
EXTT7=
EXTT8=
EXTT9=
EXTT10=
EXTT11=
EXTT12=
EXTT13=
EXTT14=
EXTT15=
EXTT16=
EXTT17=
EXTT18=
EXTT19=
EXTT20=
EXTT21=
EXTT22=
EXTT23=
EXTT24=
PLAYORDER=
